# xmcd
#
# Track frame offsets: 
#        150
#        14300
#        26783
#        51758
#        66799
#        79974
#        94785
#        110558
#        122093
#        133205
#        149052
#        165931
#        178080
#
# Disc length: 2578 seconds
#
# Revision: 0
# Processed by: cddbd v1.5.2PL0 Copyright (c) Steve Scherf et al.
# Submitted via: ExactAudioCopy v1.1
#
DISCID=b90a100d
DTITLE=Scott Ellison - Elevator Man
DYEAR=2015
DGENRE=Blues
TTITLE0=Holler For Help 
TTITLE1=Arlene 
TTITLE2=Behind That Smile
TTITLE3=Fishsticks And Jelly 
TTITLE4=Elevator Man
TTITLE5=Jesus Loves Me (Baby Why Dont You)
TTITLE6=School Girl 
TTITLE7=Put You Down
TTITLE8=Hit it, Get It And Go
TTITLE9=Wear Out Your Welcome
TTITLE10=I Thought I'd Be Gone 
TTITLE11=My Little Sheba 
TTITLE12=She's On My Trail
EXTD=
EXTT0=
EXTT1=
EXTT2=
EXTT3=
EXTT4=
EXTT5=
EXTT6=
EXTT7=
EXTT8=
EXTT9=
EXTT10=
EXTT11=
EXTT12=
PLAYORDER=
